<svg width="36" height="26" viewBox="0 0 36 26" fill="none" xmlns="http://www.w3.org/2000/svg">
<path d="M8.00474 24.9999C8.55748 24.9999 9.00557 24.5555 9.00557 24.0074C9.00557 23.4592 8.55748 23.0149 8.00474 23.0149C7.45199 23.0149 7.00391 23.4592 7.00391 24.0074C7.00391 24.5555 7.45199 24.9999 8.00474 24.9999Z" stroke="#0C1111" stroke-linecap="round" stroke-linejoin="round"/>
<path d="M17.0145 25C17.5672 25 18.0153 24.5556 18.0153 24.0075C18.0153 23.4594 17.5672 23.015 17.0145 23.015C16.4618 23.015 16.0137 23.4594 16.0137 24.0075C16.0137 24.5556 16.4618 25 17.0145 25Z" stroke="#0C1111" stroke-linecap="round" stroke-linejoin="round"/>
<path d="M1 7H4.45741L6.77388 18.4772C6.85292 18.8719 7.06941 19.2264 7.38545 19.4787C7.70149 19.7309 8.09695 19.865 8.50259 19.8573H16.9041C17.3097 19.865 17.7052 19.7309 18.0212 19.4787C18.3373 19.2264 18.5538 18.8719 18.6328 18.4772L20.0158 11.2858H5.32177" stroke="#0C1111" stroke-linecap="round" stroke-linejoin="round"/>
<rect x="15" y="2" width="21" height="15" rx="7" fill="#FF6666"/>
<path d="M26.9512 14H25.4595V8.00781C25.4595 7.29264 25.4764 6.72559 25.5103 6.30664C25.4129 6.4082 25.2923 6.52035 25.1484 6.64307C25.0088 6.76579 24.5348 7.15511 23.7266 7.81104L22.9775 6.86523L25.707 4.71973H26.9512V14Z" fill="white"/>
</svg>
